<svg xmlns="http://www.w3.org/2000/svg" xmlns:xlink="http://www.w3.org/1999/xlink" width="500" zoomAndPan="magnify" viewBox="0 0 375 374.999991" height="500" preserveAspectRatio="xMidYMid meet" version="1.0"><defs><clipPath id="045c223557"><path d="M 199 68.90625 L 285 68.90625 L 285 154 L 199 154 Z M 199 68.90625 " clip-rule="nonzero"/></clipPath></defs><path fill="#081ff7" d="M 315.820312 261.984375 L 151.265625 97.558594 C 149.109375 95.402344 146.839844 93.546875 144.511719 91.992188 C 141.980469 90.304688 139.339844 88.902344 136.65625 87.796875 L 136.621094 87.796875 C 133.917969 86.671875 131.070312 85.828125 128.144531 85.230469 C 125.257812 84.648438 122.332031 84.367188 119.40625 84.367188 C 116.480469 84.367188 113.554688 84.648438 110.648438 85.230469 C 107.722656 85.808594 104.894531 86.671875 102.175781 87.796875 L 102.136719 87.796875 C 99.453125 88.902344 96.847656 90.289062 94.375 91.9375 C 91.972656 93.546875 89.667969 95.421875 87.511719 97.574219 L 86.292969 98.792969 C 84.699219 100.515625 83.253906 102.371094 81.960938 104.300781 C 80.273438 106.832031 78.867188 109.472656 77.761719 112.152344 C 76.652344 114.832031 75.792969 117.699219 75.191406 120.660156 C 74.609375 123.542969 74.328125 126.46875 74.328125 129.390625 C 74.328125 132.292969 74.609375 135.214844 75.191406 138.101562 C 75.792969 141.0625 76.636719 143.929688 77.742188 146.589844 C 78.828125 149.230469 80.214844 151.835938 81.886719 154.347656 C 83.496094 156.761719 85.355469 159.050781 87.4375 161.148438 L 88.992188 162.703125 L 155.859375 229.496094 L 192.515625 266.125 C 232.269531 305.847656 278.359375 297.902344 319.984375 266.125 Z M 315.820312 261.984375 " fill-opacity="1" fill-rule="evenodd"/><path fill="#081ff7" d="M 343.046875 151.816406 C 336.710938 149.195312 329.941406 147.882812 323.210938 147.882812 C 316.382812 147.882812 309.617188 149.195312 303.316406 151.796875 C 297.277344 154.289062 291.578125 158.039062 286.570312 163.039062 L 286.53125 163.039062 L 280.71875 168.847656 L 278.996094 170.570312 L 280.738281 172.3125 L 350.546875 242.085938 L 352.292969 243.828125 L 354.019531 242.105469 L 359.832031 236.296875 L 359.832031 236.261719 C 362.304688 233.789062 364.441406 231.183594 366.242188 228.484375 C 368.175781 225.582031 369.789062 222.566406 371.0625 219.472656 C 372.335938 216.382812 373.332031 213.101562 374.007812 209.691406 C 374.664062 206.375 375 203.003906 375 199.632812 C 375 196.277344 374.664062 192.886719 374.007812 189.570312 C 373.332031 186.160156 372.335938 182.882812 371.0625 179.789062 C 369.789062 176.699219 368.175781 173.683594 366.242188 170.777344 C 364.441406 168.078125 362.304688 165.476562 359.832031 163.003906 C 357.355469 160.527344 354.75 158.394531 352.046875 156.59375 C 349.160156 154.703125 346.125 153.089844 343.046875 151.816406 Z M 343.046875 151.816406 " fill-opacity="1" fill-rule="evenodd"/><path fill="#081ff7" d="M 60.039062 185.167969 C 54.769531 182.992188 49.089844 181.886719 43.371094 181.886719 C 37.6875 181.886719 32.027344 182.976562 26.738281 185.167969 L 26.703125 185.167969 C 21.65625 187.246094 16.894531 190.394531 12.695312 194.589844 L 12.65625 194.589844 C 10.667969 196.578125 8.886719 198.769531 7.351562 201.09375 C 5.71875 203.527344 4.367188 206.078125 3.300781 208.644531 L 3.300781 208.679688 C 2.210938 211.285156 1.386719 214.019531 0.84375 216.832031 C 0.28125 219.605469 0 222.433594 0 225.242188 C 0 228.054688 0.28125 230.882812 0.84375 233.65625 C 1.425781 236.523438 2.25 239.277344 3.300781 241.84375 C 4.367188 244.429688 5.71875 246.957031 7.351562 249.394531 C 8.851562 251.644531 10.632812 253.816406 12.714844 255.894531 L 24.46875 267.644531 C 27 270.171875 29.796875 272.347656 32.71875 274.164062 C 36.113281 276.28125 39.695312 278.003906 43.296875 279.355469 C 47.269531 280.851562 51.339844 281.9375 55.257812 282.671875 C 79.785156 287.242188 108.660156 285.519531 138.851562 259.289062 L 134.6875 255.128906 L 127.863281 248.308594 L 74.046875 194.609375 C 69.847656 190.414062 65.066406 187.265625 60.039062 185.167969 Z M 60.039062 185.167969 " fill-opacity="1" fill-rule="evenodd"/><g clip-path="url(#045c223557)"><path fill="#081ff7" d="M 256.792969 72.339844 C 251.355469 70.089844 245.523438 68.964844 239.65625 68.964844 C 233.785156 68.964844 227.9375 70.089844 222.515625 72.339844 C 217.304688 74.492188 212.390625 77.714844 208.097656 82.023438 L 200.617188 89.5 L 199.246094 90.867188 L 200.597656 92.199219 L 200.636719 92.199219 L 261.070312 152.585938 L 262.417969 153.933594 L 263.769531 152.585938 L 271.25 145.109375 L 271.289062 145.109375 C 273.3125 143.085938 275.152344 140.820312 276.78125 138.382812 C 278.46875 135.855469 279.859375 133.269531 280.925781 130.664062 C 282.03125 128.003906 282.875 125.175781 283.457031 122.234375 C 284.019531 119.367188 284.320312 116.460938 284.320312 113.558594 C 284.320312 110.652344 284.039062 107.75 283.457031 104.882812 C 282.875 101.960938 282.03125 99.132812 280.925781 96.46875 C 279.820312 93.792969 278.433594 91.1875 276.800781 88.75 L 276.765625 88.714844 C 275.207031 86.390625 273.371094 84.140625 271.230469 82.007812 C 266.917969 77.714844 261.988281 74.492188 256.792969 72.339844 Z M 256.792969 72.339844 " fill-opacity="1" fill-rule="evenodd"/></g></svg>